<?xml version="1.0" encoding="UTF-8"?>
<svg id="Layer_1" xmlns="http://www.w3.org/2000/svg" xmlns:xlink="http://www.w3.org/1999/xlink" version="1.1" viewBox="0 0 360 307.2">
  <!-- Generator: Adobe Illustrator 29.3.1, SVG Export Plug-In . SVG Version: 2.1.0 Build 151)  -->
  <defs>
    <style>
      .st0, .st1 {
        fill-rule: evenodd;
      }

      .st0, .st2 {
        fill: #22a9e0;
      }

      .st1, .st3 {
        fill: #fff;
      }

      .st4 {
        fill: #0ce7ff;
      }

      .st5 {
        stroke: #666;
        stroke-width: 5.6px;
      }

      .st5, .st6 {
        fill: none;
        stroke-linecap: round;
      }

      .st6 {
        stroke: url(#linear-gradient);
        stroke-width: 8.9px;
      }

      .st7 {
        fill: #888;
      }
    </style>
    <linearGradient id="linear-gradient" x1="58.4" y1="108.6" x2="318.7" y2="414.5" gradientTransform="translate(0 410) scale(1 -1)" gradientUnits="userSpaceOnUse">
      <stop offset="0" stop-color="#ff2fea"/>
      <stop offset=".2" stop-color="#e0ff72"/>
      <stop offset=".5" stop-color="#61ff7e"/>
      <stop offset=".7" stop-color="#25bff2"/>
      <stop offset="1" stop-color="#0095ff"/>
    </linearGradient>
  </defs>
  <path class="st5" d="M318.8,283.5c-130.8,28.3-229.4-119.1-308.5-54.7"/>
  <path class="st6" d="M5.4,267.9c54.1,19.9,140.7-35.4,171.2-121.5,30.6-86.1,110.8,52,156.9-94.3"/>
  <path class="st7" d="M182.7,241.2l4.6-13.8,4.7,1.6c2.5.8,3.2,2.7,2.6,4.5-.4,1.3-1.5,2.2-3,2.2,1.6,1,2.3,2.7,1.6,4.7-.8,2.3-2.8,3.4-6,2.4l-4.6-1.5ZM184.9,240.3l2.8.9c2.1.7,3.5,0,4-1.5.5-1.6-.1-3.1-2.2-3.8l-2.8-.9-1.8,5.3ZM187.1,233.6l2.7.9c1.6.5,2.8,0,3.2-1.3.4-1.2-.1-2.3-1.7-2.8l-2.7-.9-1.4,4.2ZM198.6,246.7c-2.7-.9-4.6-3.6-3.4-7,1.1-3.4,4.2-4.4,6.8-3.6,2.6.9,4.6,3.6,2.9,7.5l-8.3-2.8c-.5,2.2.8,3.9,2.7,4.5,1.2.4,2.4.3,3.4-.2l.5,1.1c-1.3.8-3,1-4.6.5ZM196.9,239.6l6.9,2.3c.6-2.1-.6-3.8-2.3-4.3-1.7-.6-3.6,0-4.6,2ZM209.4,237.6c.8-2.5,2.7-2.4,3.9-2,.6.2,1.1.5,1.4.9l-.4,1.3c-.3-.3-.8-.6-1.1-.7-.9-.3-1.7,0-2.1,1.2l-.3.9,2.8.9-.4,1.3-2.8-.9-2.9,8.8-1.7-.6,2.9-8.8-1.2-.4.4-1.3,1.2.4.4-1.1ZM216.2,252.6c-2.6-.9-4.6-3.6-3.5-7,1.1-3.4,4.4-4.4,7-3.5,2.6.9,4.6,3.6,3.5,7-1.1,3.4-4.4,4.4-7,3.5ZM214.4,246.1c-.8,2.4.5,4.3,2.4,5,1.9.6,4.1-.2,4.9-2.5.8-2.4-.5-4.3-2.4-5-1.9-.6-4.1.2-4.9,2.5ZM223.4,254.8l3.4-10.1,1.6.5-.8,2.5c.9-1.3,2.3-2.2,4.2-1.6.2,0,.4.2.6.3l-.5,1.5c-.2,0-.3-.2-.5-.2-1.9-.6-3.7.3-4.5,2.6l-1.7,5.1-1.6-.5ZM235,258.9c-2.7-.9-4.6-3.6-3.4-7,1.1-3.4,4.2-4.4,6.8-3.6,2.6.9,4.6,3.6,2.9,7.5l-8.3-2.8c-.5,2.2.8,3.9,2.7,4.5,1.2.4,2.4.3,3.4-.2l.5,1.1c-1.3.8-3,1-4.6.5ZM233.4,251.8l6.9,2.3c.6-2.1-.6-3.8-2.3-4.3-1.7-.6-3.6,0-4.6,2Z"/>
  <path class="st3" d="M128.1,142.6l.7-1.6,15.7.9-.8,1.7-3.6-.2-2.9,6.3,2.5,2.6-.8,1.7-10.8-11.4ZM136,148.4l2.4-5.1-7.8-.5,5.4,5.6ZM134.7,135c-2.3-1.1-2.1-2.9-1.6-4.1.3-.6.6-1.1,1.1-1.3l1.2.6c-.4.3-.7.7-.8,1.1-.4.9-.2,1.7,1,2.3l.9.4,1.2-2.7,1.3.6-1.2,2.7,8.4,3.9-.7,1.6-8.4-3.9-.5,1.1-1.3-.6.5-1.1-1.1-.5ZM149.6,131.2c-.6,1.3-1.6,1.9-3.1,1.2l-6.4-3-.6,1.3-1.3-.6.6-1.3-2.5-1.2.7-1.6,2.5,1.2.9-1.9,1.3.6-.9,1.9,6.1,2.8c.6.3,1.1.2,1.4-.6.1-.2.2-.5.2-1l1.2.6c.1.5,0,1-.3,1.5ZM153.2,123.7c-1.2,2.6-4.1,4.1-7.3,2.6-3.3-1.5-3.9-4.7-2.8-7.2,1.1-2.5,4.1-4.2,7.8-2l-3.7,8c2.1.7,3.9-.3,4.8-2.2.5-1.1.6-2.4.2-3.4l1.2-.4c.7,1.4.7,3.1,0,4.6ZM146,124.6l3.1-6.6c-2-.8-3.8.2-4.6,1.8-.7,1.6-.4,3.6,1.5,4.8ZM156,117.3l-9.7-4.5.7-1.6,2.4,1.1c-1.2-1-2-2.5-1.1-4.3.1-.2.2-.4.3-.5l1.5.7c-.1.2-.2.3-.3.5-.8,1.8,0,3.8,2.1,4.8l4.9,2.3-.7,1.6Z"/>
  <path class="st4" d="M295.9,17.8v-2.3h2.7v-2.7h2.3v2.7h2.8v2.3h-2.8v2.7h-2.3v-2.7h-2.7ZM309.9,16.3c1.7-2.2,2.3-3,2.3-4.1s-1.1-2-1.9-2-2,.5-2,2.2v.4h-2.8v-.6c0-2.4,1.6-4.5,4.9-4.5s4.8,1.8,4.8,4.1-1.2,3.3-2.4,4.8l-2.6,3.4h5v2.4h-9.8l4.6-6.1ZM321.4,22.7c-2.4,0-4.1-1.3-4.8-3l2.1-1.2c.2.7,1.2,1.7,2.6,1.7s2.7-.8,2.7-2.6-1.2-2.6-2.6-2.6-2.1.8-2.3,1.2l-2.2-.9,1-7.4h7.4v2.4h-5.3l-.5,3.2c.1-.2,1-.8,2.4-.8,2.4,0,4.7,1.8,4.7,4.9s-2.4,5.1-5.3,5.1ZM335.7,22.7c-4,0-7.4-3-7.4-7.5s3.4-7.5,7.4-7.5,7.4,3,7.4,7.5-3.4,7.5-7.4,7.5ZM331.1,15.2c0,2.9,2.1,4.9,4.6,4.9s4.6-2,4.6-4.9-2.1-4.9-4.6-4.9-4.6,2-4.6,4.9ZM347.7,22.5l-2.1-1.3,8.6-13.3,2.1,1.3-8.6,13.3ZM344.7,10.3c0-1.4,1.1-2.5,2.5-2.5s2.5,1.1,2.5,2.5-1.1,2.5-2.5,2.5-2.5-1.1-2.5-2.5ZM346.5,10.3c0,.4.3.8.7.8s.7-.3.7-.8-.3-.8-.7-.8-.7.3-.7.8ZM352.5,20c0-1.4,1.1-2.5,2.5-2.5s2.5,1.1,2.5,2.5-1.1,2.5-2.5,2.5-2.5-1.1-2.5-2.5ZM354.3,20c0,.4.3.8.8.8s.8-.3.8-.8-.3-.8-.8-.8-.8.3-.8.8Z"/>
  <g>
    <path class="st2" d="M38.8,9.9l-8.1,8.1-8.1-8.1-10.2,10.2,6.1,6.1,2.1-2.1-4-4,6.1-6.1,6.1,6.1-8.1,8.1,10.2,10.2,10.2-10.2-8.1-8.1,6.1-6.1,6.1,6.1-4,4,2.1,2.1,6.1-6.1-10.2-10.2ZM36.8,28.2l-6.1,6.1-6.1-6.1,6.1-6.1,6.1,6.1Z"/>
    <path class="st1" d="M112.8,20.2c2.5,5.6,2,4.4,4.1,9.3h1.6l-4.9-10.8h-1.5l-4.9,10.8h1.6c2.4-5.5,1.3-2.9,4.1-9.3"/>
    <path class="st1" d="M100.7,24.9h-2.6v-4.9h2.6c2,0,3,.9,3,2.4s-1,2.4-3,2.4M105.4,29.5l-2.6-3.6c1.5-.5,2.4-1.7,2.4-3.4s-1.7-3.8-4.5-3.8h-4.2v10.8h1.5v-3.3h2.7c.2,0,.5,0,.7,0l2.3,3.3h1.7Z"/>
    <polygon class="st1" points="86.6 28.2 86.6 24.7 92.1 24.7 92.1 23.3 86.6 23.3 85.1 23.3 85.1 29.5 92.9 29.5 92.9 28.2 86.6 28.2"/>
    <path class="st0" d="M81.5,18.7h-7.9v1.3h7.9v-1.3ZM92.9,18.7h-7.9v1.3h7.9v-1.3Z"/>
    <polygon class="st1" points="75.2 28.2 75.2 24.7 80.6 24.7 80.6 23.3 75.2 23.3 73.7 23.3 73.7 29.5 81.5 29.5 81.5 28.2 75.2 28.2"/>
    <polygon class="st1" points="69.4 29.5 69.4 18.7 68.1 18.7 63.6 26.3 59.1 18.7 57.8 18.7 57.8 29.5 59.3 29.5 59.3 21.7 63.2 28.2 64 28.2 67.9 21.6 67.9 29.5 69.4 29.5"/>
    <path class="st3" d="M119.6,28.9c0-.5.4-.8.8-.8s.7.3.7.8-.3.8-.7.8-.8-.3-.8-.8"/>
    <path class="st3" d="M127.3,25.9v3.6h-1v-.8c-.4.5-1,.9-2,.9-1.4,0-2.2-.7-2.2-1.8s.6-1.8,2.4-1.8h1.7v-.2c0-.9-.5-1.5-1.6-1.5s-1.4.2-1.9.6l-.5-.8c.6-.5,1.5-.8,2.5-.8,1.6,0,2.6.8,2.6,2.4M126.2,27.7v-.8h-1.7c-1.1,0-1.4.4-1.4.9s.5,1,1.3,1,1.5-.4,1.7-1.1"/>
    <path class="st3" d="M129.1,21.7c0-.4.3-.7.7-.7s.7.3.7.7-.3.7-.7.7-.7-.3-.7-.7M129.3,23.6h1.1v6h-1.1v-6Z"/>
  </g>
</svg>